ply
format ascii 1.0
comment Created by Blender 2.79 (sub 0) - www.blender.org, source file: 'sphere.blend'
element vertex 596
property float x
property float y
property float z
property float nx
property float ny
property float nz
element face 264
property list uchar uint vertex_indices
end_header
0.000000 0.965926 0.258819 0.240299 0.896809 0.371470
0.433013 0.750000 0.500000 0.240299 0.896809 0.371470
0.482963 0.836516 0.258819 0.240299 0.896809 0.371470
0.000000 0.000000 -1.000000 0.034953 0.130447 -0.990839
0.000000 0.258819 -0.965926 0.034953 0.130447 -0.990839
0.129409 0.224144 -0.965926 0.034953 0.130447 -0.990839
0.000000 0.258819 0.965926 0.102005 0.380687 0.919061
0.250000 0.433013 0.866025 0.102005 0.380687 0.919061
0.000000 0.500000 0.866025 0.102005 0.380687 0.919061
0.000000 0.866026 -0.500000 0.207932 0.776013 -0.595456
0.353553 0.612373 -0.707107 0.207932 0.776013 -0.595456
0.000000 0.707107 -0.707107 0.207932 0.776013 -0.595456
0.000000 0.965926 0.258819 0.256751 0.958209 0.126151
0.500000 0.866025 0.000000 0.256751 0.958209 0.126151
0.000000 1.000000 0.000000 0.256751 0.958209 0.126151
0.000000 0.707107 0.707107 0.160989 0.600821 0.783005
0.250000 0.433013 0.866025 0.160989 0.600821 0.783005
0.353553 0.612372 0.707107 0.160989 0.600821 0.783005
0.000000 0.707107 -0.707107 0.160990 0.600821 -0.783005
0.250000 0.433013 -0.866025 0.160990 0.600821 -0.783005
0.000000 0.500000 -0.866025 0.160990 0.600821 -0.783005
0.000000 1.000000 0.000000 0.256751 0.958209 -0.126150
0.482963 0.836516 -0.258819 0.256751 0.958209 -0.126150
0.000000 0.965926 -0.258819 0.256751 0.958209 -0.126150
0.000000 0.707107 0.707107 0.207932 0.776013 0.595456
0.433013 0.750000 0.500000 0.207932 0.776013 0.595456
0.000000 0.866025 0.500000 0.207932 0.776013 0.595456
0.000000 0.500000 -0.866025 0.102005 0.380688 -0.919060
0.129409 0.224144 -0.965926 0.102005 0.380688 -0.919060
0.000000 0.258819 -0.965926 0.102005 0.380688 -0.919060
0.000000 0.258819 0.965926 0.034953 0.130446 0.990839
-0.000000 0.000000 1.000000 0.034953 0.130446 0.990839
0.129409 0.224144 0.965926 0.034953 0.130446 0.990839
0.000000 0.965926 -0.258819 0.240299 0.896809 -0.371470
0.433013 0.750000 -0.500000 0.240299 0.896809 -0.371470
0.000000 0.866026 -0.500000 0.240299 0.896809 -0.371470
0.353553 0.612373 -0.707107 0.439832 0.439832 -0.783005
0.433013 0.250000 -0.866025 0.439832 0.439832 -0.783005
0.250000 0.433013 -0.866025 0.439832 0.439832 -0.783005
0.500000 0.866025 0.000000 0.701458 0.701458 -0.126150
0.836516 0.482963 -0.258819 0.701458 0.701458 -0.126150
0.482963 0.836516 -0.258819 0.701458 0.701458 -0.126150
0.433013 0.750000 0.500000 0.568081 0.568081 0.595456
0.612372 0.353554 0.707107 0.568081 0.568081 0.595456
0.750000 0.433013 0.500000 0.568081 0.568081 0.595456
0.250000 0.433013 -0.866025 0.278683 0.278683 -0.919060
0.224144 0.129410 -0.965926 0.278683 0.278683 -0.919060
0.129409 0.224144 -0.965926 0.278683 0.278683 -0.919060
0.129409 0.224144 0.965926 0.095493 0.095493 0.990839
-0.000000 0.000000 1.000000 0.095493 0.095493 0.990839
0.224144 0.129410 0.965926 0.095493 0.095493 0.990839
0.482963 0.836516 -0.258819 0.656510 0.656510 -0.371470
0.750000 0.433013 -0.500000 0.656510 0.656510 -0.371470
0.433013 0.750000 -0.500000 0.656510 0.656510 -0.371470
0.482963 0.836516 0.258819 0.656510 0.656510 0.371470
0.750000 0.433013 0.500000 0.656510 0.656510 0.371470
0.836516 0.482963 0.258819 0.656510 0.656510 0.371470
0.000000 0.000000 -1.000000 0.095494 0.095494 -0.990839
0.129409 0.224144 -0.965926 0.095494 0.095494 -0.990839
0.224144 0.129410 -0.965926 0.095494 0.095494 -0.990839
0.250000 0.433013 0.866025 0.278683 0.278682 0.919061
0.224144 0.129410 0.965926 0.278683 0.278682 0.919061
0.433012 0.250000 0.866025 0.278683 0.278682 0.919061
0.433013 0.750000 -0.500000 0.568081 0.568081 -0.595456
0.612372 0.353554 -0.707107 0.568081 0.568081 -0.595456
0.353553 0.612373 -0.707107 0.568081 0.568081 -0.595456
0.482963 0.836516 0.258819 0.701458 0.701458 0.126151
0.866025 0.500000 0.000000 0.701458 0.701458 0.126151
0.500000 0.866025 0.000000 0.701458 0.701458 0.126151
0.250000 0.433013 0.866025 0.439831 0.439831 0.783005
0.612372 0.353554 0.707107 0.439831 0.439831 0.783005
0.353553 0.612372 0.707107 0.439831 0.439831 0.783005
0.224144 0.129410 0.965926 0.380687 0.102005 0.919060
0.500000 0.000000 0.866025 0.380687 0.102005 0.919060
0.433012 0.250000 0.866025 0.380687 0.102005 0.919060
0.750000 0.433013 -0.500000 0.776013 0.207932 -0.595456
0.707107 0.000000 -0.707107 0.776013 0.207932 -0.595456
0.612372 0.353554 -0.707107 0.776013 0.207932 -0.595456
0.836516 0.482963 0.258819 0.958209 0.256751 0.126151
1.000000 0.000000 0.000000 0.958209 0.256751 0.126151
0.866025 0.500000 0.000000 0.958209 0.256751 0.126151
0.433012 0.250000 0.866025 0.600821 0.160989 0.783005
0.707106 0.000000 0.707107 0.600821 0.160989 0.783005
0.612372 0.353554 0.707107 0.600821 0.160989 0.783005
0.612372 0.353554 -0.707107 0.600821 0.160989 -0.783005
0.500000 0.000000 -0.866025 0.600821 0.160989 -0.783005
0.433013 0.250000 -0.866025 0.600821 0.160989 -0.783005
0.866025 0.500000 0.000000 0.958209 0.256752 -0.126150
0.965926 0.000000 -0.258819 0.958209 0.256752 -0.126150
0.836516 0.482963 -0.258819 0.958209 0.256752 -0.126150
0.612372 0.353554 0.707107 0.776013 0.207932 0.595456
0.866025 0.000000 0.500000 0.776013 0.207932 0.595456
0.750000 0.433013 0.500000 0.776013 0.207932 0.595456
0.224144 0.129410 -0.965926 0.380688 0.102005 -0.919060
0.500000 0.000000 -0.866025 0.380688 0.102005 -0.919060
0.258819 0.000000 -0.965926 0.380688 0.102005 -0.919060
0.224144 0.129410 0.965926 0.130447 0.034953 0.990839
-0.000000 0.000000 1.000000 0.130447 0.034953 0.990839
0.258819 0.000000 0.965926 0.130447 0.034953 0.990839
0.750000 0.433013 -0.500000 0.896809 0.240299 -0.371470
0.965926 0.000000 -0.258819 0.896809 0.240299 -0.371470
0.866025 0.000000 -0.500000 0.896809 0.240299 -0.371470
0.750000 0.433013 0.500000 0.896809 0.240299 0.371470
0.965925 0.000000 0.258819 0.896809 0.240299 0.371470
0.836516 0.482963 0.258819 0.896809 0.240299 0.371470
0.000000 0.000000 -1.000000 0.130447 0.034953 -0.990839
0.224144 0.129410 -0.965926 0.130447 0.034953 -0.990839
0.258819 0.000000 -0.965926 0.130447 0.034953 -0.990839
0.500000 0.000000 -0.866025 0.380688 -0.102005 -0.919060
0.224144 -0.129409 -0.965926 0.380688 -0.102005 -0.919060
0.258819 0.000000 -0.965926 0.380688 -0.102005 -0.919060
0.258819 0.000000 0.965926 0.130447 -0.034953 0.990839
-0.000000 0.000000 1.000000 0.130447 -0.034953 0.990839
0.224144 -0.129409 0.965926 0.130447 -0.034953 0.990839
0.866025 0.000000 -0.500000 0.896809 -0.240299 -0.371470
0.836516 -0.482962 -0.258819 0.896809 -0.240299 -0.371470
0.750000 -0.433012 -0.500000 0.896809 -0.240299 -0.371470
0.866025 0.000000 0.500000 0.896809 -0.240299 0.371470
0.836516 -0.482962 0.258819 0.896809 -0.240299 0.371470
0.965925 0.000000 0.258819 0.896809 -0.240299 0.371470
0.000000 0.000000 -1.000000 0.130447 -0.034953 -0.990839
0.258819 0.000000 -0.965926 0.130447 -0.034953 -0.990839
0.224144 -0.129409 -0.965926 0.130447 -0.034953 -0.990839
0.258819 0.000000 0.965926 0.380687 -0.102005 0.919060
0.433012 -0.249999 0.866025 0.380687 -0.102005 0.919060
0.500000 0.000000 0.866025 0.380687 -0.102005 0.919060
0.866025 0.000000 -0.500000 0.776013 -0.207932 -0.595456
0.612372 -0.353553 -0.707107 0.776013 -0.207932 -0.595456
0.707107 0.000000 -0.707107 0.776013 -0.207932 -0.595456
0.965925 0.000000 0.258819 0.958209 -0.256751 0.126150
0.866025 -0.499999 0.000000 0.958209 -0.256751 0.126150
1.000000 0.000000 0.000000 0.958209 -0.256751 0.126150
0.500000 0.000000 0.866025 0.600821 -0.160989 0.783005
0.612372 -0.353553 0.707107 0.600821 -0.160989 0.783005
0.707106 0.000000 0.707107 0.600821 -0.160989 0.783005
0.707107 0.000000 -0.707107 0.600821 -0.160990 -0.783005
0.433012 -0.250000 -0.866025 0.600821 -0.160990 -0.783005
0.500000 0.000000 -0.866025 0.600821 -0.160990 -0.783005
1.000000 0.000000 0.000000 0.958209 -0.256751 -0.126150
0.836516 -0.482962 -0.258819 0.958209 -0.256751 -0.126150
0.965926 0.000000 -0.258819 0.958209 -0.256751 -0.126150
0.707106 0.000000 0.707107 0.776013 -0.207932 0.595456
0.750000 -0.433012 0.500000 0.776013 -0.207932 0.595456
0.866025 0.000000 0.500000 0.776013 -0.207932 0.595456
0.433012 -0.249999 0.866025 0.439831 -0.439831 0.783005
0.353553 -0.612372 0.707107 0.439831 -0.439831 0.783005
0.612372 -0.353553 0.707107 0.439831 -0.439831 0.783005
0.433012 -0.250000 -0.866025 0.439831 -0.439831 -0.783005
0.353553 -0.612372 -0.707107 0.439831 -0.439831 -0.783005
0.250000 -0.433012 -0.866025 0.439831 -0.439831 -0.783005
0.866025 -0.499999 0.000000 0.701458 -0.701458 -0.126150
0.482963 -0.836516 -0.258819 0.701458 -0.701458 -0.126150
0.836516 -0.482962 -0.258819 0.701458 -0.701458 -0.126150
0.612372 -0.353553 0.707107 0.568081 -0.568081 0.595456
0.433012 -0.749999 0.500000 0.568081 -0.568081 0.595456
0.750000 -0.433012 0.500000 0.568081 -0.568081 0.595456
0.433012 -0.250000 -0.866025 0.278683 -0.278683 -0.919060
0.129409 -0.224143 -0.965926 0.278683 -0.278683 -0.919060
0.224144 -0.129409 -0.965926 0.278683 -0.278683 -0.919060
0.224144 -0.129409 0.965926 0.095494 -0.095494 0.990839
-0.000000 0.000000 1.000000 0.095494 -0.095494 0.990839
0.129409 -0.224143 0.965926 0.095494 -0.095494 0.990839
0.750000 -0.433012 -0.500000 0.656510 -0.656510 -0.371470
0.482963 -0.836516 -0.258819 0.656510 -0.656510 -0.371470
0.433013 -0.749999 -0.500000 0.656510 -0.656510 -0.371470
0.750000 -0.433012 0.500000 0.656509 -0.656510 0.371471
0.482963 -0.836516 0.258819 0.656509 -0.656510 0.371471
0.836516 -0.482962 0.258819 0.656509 -0.656510 0.371471
0.000000 0.000000 -1.000000 0.095494 -0.095494 -0.990839
0.224144 -0.129409 -0.965926 0.095494 -0.095494 -0.990839
0.129409 -0.224143 -0.965926 0.095494 -0.095494 -0.990839
0.224144 -0.129409 0.965926 0.278683 -0.278683 0.919060
0.250000 -0.433012 0.866025 0.278683 -0.278683 0.919060
0.433012 -0.249999 0.866025 0.278683 -0.278683 0.919060
0.750000 -0.433012 -0.500000 0.568081 -0.568081 -0.595456
0.353553 -0.612372 -0.707107 0.568081 -0.568081 -0.595456
0.612372 -0.353553 -0.707107 0.568081 -0.568081 -0.595456
0.866025 -0.499999 0.000000 0.701458 -0.701458 0.126150
0.482963 -0.836516 0.258819 0.701458 -0.701458 0.126150
0.500000 -0.866025 0.000000 0.701458 -0.701458 0.126150
0.000000 0.000000 -1.000000 0.034953 -0.130447 -0.990839
0.129409 -0.224143 -0.965926 0.034953 -0.130447 -0.990839
0.000000 -0.258819 -0.965926 0.034953 -0.130447 -0.990839
0.129409 -0.224143 0.965926 0.102005 -0.380687 0.919060
-0.000000 -0.499999 0.866025 0.102005 -0.380687 0.919060
0.250000 -0.433012 0.866025 0.102005 -0.380687 0.919060
0.433013 -0.749999 -0.500000 0.207932 -0.776013 -0.595456
-0.000000 -0.707106 -0.707107 0.207932 -0.776013 -0.595456
0.353553 -0.612372 -0.707107 0.207932 -0.776013 -0.595456
0.500000 -0.866025 0.000000 0.256751 -0.958209 0.126150
-0.000000 -0.965925 0.258819 0.256751 -0.958209 0.126150
-0.000000 -0.999999 0.000000 0.256751 -0.958209 0.126150
0.250000 -0.433012 0.866025 0.160989 -0.600821 0.783005
-0.000000 -0.707106 0.707107 0.160989 -0.600821 0.783005
0.353553 -0.612372 0.707107 0.160989 -0.600821 0.783005
0.250000 -0.433012 -0.866025 0.160989 -0.600821 -0.783005
-0.000000 -0.707106 -0.707107 0.160989 -0.600821 -0.783005
-0.000000 -0.499999 -0.866025 0.160989 -0.600821 -0.783005
0.500000 -0.866025 0.000000 0.256751 -0.958209 -0.126150
-0.000000 -0.965925 -0.258819 0.256751 -0.958209 -0.126150
0.482963 -0.836516 -0.258819 0.256751 -0.958209 -0.126150
0.353553 -0.612372 0.707107 0.207932 -0.776013 0.595456
-0.000000 -0.866025 0.500000 0.207932 -0.776013 0.595456
0.433012 -0.749999 0.500000 0.207932 -0.776013 0.595456
0.129409 -0.224143 -0.965926 0.102005 -0.380688 -0.919060
-0.000000 -0.499999 -0.866025 0.102005 -0.380688 -0.919060
0.000000 -0.258819 -0.965926 0.102005 -0.380688 -0.919060
0.129409 -0.224143 0.965926 0.034953 -0.130447 0.990839
-0.000000 0.000000 1.000000 0.034953 -0.130447 0.990839
0.000000 -0.258818 0.965926 0.034953 -0.130447 0.990839
0.482963 -0.836516 -0.258819 0.240299 -0.896809 -0.371470
-0.000000 -0.866025 -0.500000 0.240299 -0.896809 -0.371470
0.433013 -0.749999 -0.500000 0.240299 -0.896809 -0.371470
0.433012 -0.749999 0.500000 0.240299 -0.896809 0.371471
-0.000000 -0.965925 0.258819 0.240299 -0.896809 0.371471
0.482963 -0.836516 0.258819 0.240299 -0.896809 0.371471
-0.000000 -0.707106 0.707107 -0.207932 -0.776013 0.595456
-0.433012 -0.749999 0.500000 -0.207932 -0.776013 0.595456
-0.000000 -0.866025 0.500000 -0.207932 -0.776013 0.595456
0.000000 -0.258819 -0.965926 -0.102005 -0.380688 -0.919060
-0.250000 -0.433012 -0.866025 -0.102005 -0.380688 -0.919060
-0.129409 -0.224143 -0.965926 -0.102005 -0.380688 -0.919060
0.000000 -0.258818 0.965926 -0.034953 -0.130447 0.990839
-0.000000 0.000000 1.000000 -0.034953 -0.130447 0.990839
-0.129409 -0.224143 0.965926 -0.034953 -0.130447 0.990839
-0.000000 -0.965925 -0.258819 -0.240299 -0.896809 -0.371470
-0.433013 -0.749999 -0.500000 -0.240299 -0.896809 -0.371470
-0.000000 -0.866025 -0.500000 -0.240299 -0.896809 -0.371470
-0.000000 -0.965925 0.258819 -0.240299 -0.896809 0.371471
-0.433012 -0.749999 0.500000 -0.240299 -0.896809 0.371471
-0.482963 -0.836516 0.258819 -0.240299 -0.896809 0.371471
0.000000 0.000000 -1.000000 -0.034953 -0.130447 -0.990839
0.000000 -0.258819 -0.965926 -0.034953 -0.130447 -0.990839
-0.129409 -0.224143 -0.965926 -0.034953 -0.130447 -0.990839
-0.000000 -0.499999 0.866025 -0.102005 -0.380688 0.919060
-0.129409 -0.224143 0.965926 -0.102005 -0.380688 0.919060
-0.250000 -0.433012 0.866025 -0.102005 -0.380688 0.919060
-0.000000 -0.866025 -0.500000 -0.207932 -0.776013 -0.595456
-0.353553 -0.612372 -0.707107 -0.207932 -0.776013 -0.595456
-0.000000 -0.707106 -0.707107 -0.207932 -0.776013 -0.595456
-0.000000 -0.999999 0.000000 -0.256752 -0.958209 0.126150
-0.482963 -0.836516 0.258819 -0.256752 -0.958209 0.126150
-0.500000 -0.866025 0.000000 -0.256752 -0.958209 0.126150
-0.000000 -0.499999 0.866025 -0.160990 -0.600821 0.783005
-0.353553 -0.612372 0.707107 -0.160990 -0.600821 0.783005
-0.000000 -0.707106 0.707107 -0.160990 -0.600821 0.783005
-0.000000 -0.707106 -0.707107 -0.160990 -0.600821 -0.783005
-0.250000 -0.433012 -0.866025 -0.160990 -0.600821 -0.783005
-0.000000 -0.499999 -0.866025 -0.160990 -0.600821 -0.783005
-0.000000 -0.999999 0.000000 -0.256751 -0.958209 -0.126151
-0.482963 -0.836516 -0.258819 -0.256751 -0.958209 -0.126151
-0.000000 -0.965925 -0.258819 -0.256751 -0.958209 -0.126151
-0.250000 -0.433012 0.866025 -0.439831 -0.439831 0.783005
-0.612372 -0.353553 0.707107 -0.439831 -0.439831 0.783005
-0.353553 -0.612372 0.707107 -0.439831 -0.439831 0.783005
-0.353553 -0.612372 -0.707107 -0.439831 -0.439831 -0.783005
-0.433013 -0.249999 -0.866025 -0.439831 -0.439831 -0.783005
-0.250000 -0.433012 -0.866025 -0.439831 -0.439831 -0.783005
-0.500000 -0.866025 0.000000 -0.701458 -0.701458 -0.126150
-0.836516 -0.482962 -0.258819 -0.701458 -0.701458 -0.126150
-0.482963 -0.836516 -0.258819 -0.701458 -0.701458 -0.126150
-0.353553 -0.612372 0.707107 -0.568081 -0.568081 0.595456
-0.750000 -0.433012 0.500000 -0.568081 -0.568081 0.595456
-0.433012 -0.749999 0.500000 -0.568081 -0.568081 0.595456
-0.129409 -0.224143 -0.965926 -0.278683 -0.278683 -0.919060
-0.433013 -0.249999 -0.866025 -0.278683 -0.278683 -0.919060
-0.224144 -0.129409 -0.965926 -0.278683 -0.278683 -0.919060
-0.129409 -0.224143 0.965926 -0.095494 -0.095494 0.990839
-0.000000 0.000000 1.000000 -0.095494 -0.095494 0.990839
-0.224143 -0.129409 0.965926 -0.095494 -0.095494 0.990839
-0.482963 -0.836516 -0.258819 -0.656510 -0.656510 -0.371470
-0.750000 -0.433012 -0.500000 -0.656510 -0.656510 -0.371470
-0.433013 -0.749999 -0.500000 -0.656510 -0.656510 -0.371470
-0.433012 -0.749999 0.500000 -0.656510 -0.656509 0.371471
-0.836516 -0.482962 0.258819 -0.656510 -0.656509 0.371471
-0.482963 -0.836516 0.258819 -0.656510 -0.656509 0.371471
0.000000 0.000000 -1.000000 -0.095494 -0.095494 -0.990839
-0.129409 -0.224143 -0.965926 -0.095494 -0.095494 -0.990839
-0.224144 -0.129409 -0.965926 -0.095494 -0.095494 -0.990839
-0.129409 -0.224143 0.965926 -0.278683 -0.278683 0.919060
-0.433012 -0.249999 0.866025 -0.278683 -0.278683 0.919060
-0.250000 -0.433012 0.866025 -0.278683 -0.278683 0.919060
-0.433013 -0.749999 -0.500000 -0.568081 -0.568081 -0.595456
-0.612372 -0.353553 -0.707107 -0.568081 -0.568081 -0.595456
-0.353553 -0.612372 -0.707107 -0.568081 -0.568081 -0.595456
-0.500000 -0.866025 0.000000 -0.701458 -0.701458 0.126150
-0.836516 -0.482962 0.258819 -0.701458 -0.701458 0.126150
-0.866025 -0.499999 0.000000 -0.701458 -0.701458 0.126150
-0.750000 -0.433012 0.500000 -0.896809 -0.240299 0.371471
-0.965925 0.000000 0.258819 -0.896809 -0.240299 0.371471
-0.836516 -0.482962 0.258819 -0.896809 -0.240299 0.371471
0.000000 0.000000 -1.000000 -0.130447 -0.034953 -0.990839
-0.224144 -0.129409 -0.965926 -0.130447 -0.034953 -0.990839
-0.258819 0.000000 -0.965926 -0.130447 -0.034953 -0.990839
-0.224143 -0.129409 0.965926 -0.380687 -0.102005 0.919060
-0.499999 0.000000 0.866025 -0.380687 -0.102005 0.919060
-0.433012 -0.249999 0.866025 -0.380687 -0.102005 0.919060
-0.750000 -0.433012 -0.500000 -0.776013 -0.207932 -0.595455
-0.707107 0.000000 -0.707107 -0.776013 -0.207932 -0.595455
-0.612372 -0.353553 -0.707107 -0.776013 -0.207932 -0.595455
-0.866025 -0.499999 0.000000 -0.958209 -0.256751 0.126150
-0.965925 0.000000 0.258819 -0.958209 -0.256751 0.126150
-0.999999 0.000001 0.000000 -0.958209 -0.256751 0.126150
-0.433012 -0.249999 0.866025 -0.600821 -0.160989 0.783005
-0.707106 0.000001 0.707107 -0.600821 -0.160989 0.783005
-0.612372 -0.353553 0.707107 -0.600821 -0.160989 0.783005
-0.433013 -0.249999 -0.866025 -0.600821 -0.160989 -0.783005
-0.707107 0.000000 -0.707107 -0.600821 -0.160989 -0.783005
-0.500000 0.000000 -0.866025 -0.600821 -0.160989 -0.783005
-0.866025 -0.499999 0.000000 -0.958209 -0.256751 -0.126150
-0.965925 0.000000 -0.258819 -0.958209 -0.256751 -0.126150
-0.836516 -0.482962 -0.258819 -0.958209 -0.256751 -0.126150
-0.612372 -0.353553 0.707107 -0.776013 -0.207932 0.595456
-0.866025 0.000000 0.500000 -0.776013 -0.207932 0.595456
-0.750000 -0.433012 0.500000 -0.776013 -0.207932 0.595456
-0.433013 -0.249999 -0.866025 -0.380688 -0.102005 -0.919060
-0.258819 0.000000 -0.965926 -0.380688 -0.102005 -0.919060
-0.224144 -0.129409 -0.965926 -0.380688 -0.102005 -0.919060
-0.224143 -0.129409 0.965926 -0.130447 -0.034953 0.990839
-0.000000 0.000000 1.000000 -0.130447 -0.034953 0.990839
-0.258819 0.000000 0.965926 -0.130447 -0.034953 0.990839
-0.836516 -0.482962 -0.258819 -0.896809 -0.240299 -0.371470
-0.866025 0.000000 -0.500000 -0.896809 -0.240299 -0.371470
-0.750000 -0.433012 -0.500000 -0.896809 -0.240299 -0.371470
-0.707106 0.000001 0.707107 -0.776013 0.207932 0.595456
-0.749999 0.433013 0.500000 -0.776013 0.207932 0.595456
-0.866025 0.000000 0.500000 -0.776013 0.207932 0.595456
-0.500000 0.000000 -0.866025 -0.380688 0.102005 -0.919060
-0.224144 0.129410 -0.965926 -0.380688 0.102005 -0.919060
-0.258819 0.000000 -0.965926 -0.380688 0.102005 -0.919060
-0.258819 0.000000 0.965926 -0.130447 0.034953 0.990839
-0.000000 0.000000 1.000000 -0.130447 0.034953 0.990839
-0.224143 0.129410 0.965926 -0.130447 0.034953 0.990839
-0.965925 0.000000 -0.258819 -0.896809 0.240299 -0.371470
-0.750000 0.433013 -0.500000 -0.896809 0.240299 -0.371470
-0.866025 0.000000 -0.500000 -0.896809 0.240299 -0.371470
-0.866025 0.000000 0.500000 -0.896809 0.240299 0.371471
-0.836516 0.482963 0.258819 -0.896809 0.240299 0.371471
-0.965925 0.000000 0.258819 -0.896809 0.240299 0.371471
0.000000 0.000000 -1.000000 -0.130447 0.034953 -0.990839
-0.258819 0.000000 -0.965926 -0.130447 0.034953 -0.990839
-0.224144 0.129410 -0.965926 -0.130447 0.034953 -0.990839
-0.258819 0.000000 0.965926 -0.380687 0.102005 0.919060
-0.433012 0.250000 0.866025 -0.380687 0.102005 0.919060
-0.499999 0.000000 0.866025 -0.380687 0.102005 0.919060
-0.866025 0.000000 -0.500000 -0.776013 0.207932 -0.595456
-0.612372 0.353554 -0.707107 -0.776013 0.207932 -0.595456
-0.707107 0.000000 -0.707107 -0.776013 0.207932 -0.595456
-0.999999 0.000001 0.000000 -0.958209 0.256752 0.126150
-0.836516 0.482963 0.258819 -0.958209 0.256752 0.126150
-0.866025 0.500000 0.000000 -0.958209 0.256752 0.126150
-0.499999 0.000000 0.866025 -0.600821 0.160990 0.783005
-0.612372 0.353554 0.707107 -0.600821 0.160990 0.783005
-0.707106 0.000001 0.707107 -0.600821 0.160990 0.783005
-0.500000 0.000000 -0.866025 -0.600821 0.160990 -0.783005
-0.612372 0.353554 -0.707107 -0.600821 0.160990 -0.783005
-0.433012 0.250000 -0.866025 -0.600821 0.160990 -0.783005
-0.999999 0.000001 0.000000 -0.958209 0.256752 -0.126150
-0.836516 0.482963 -0.258819 -0.958209 0.256752 -0.126150
-0.965925 0.000000 -0.258819 -0.958209 0.256752 -0.126150
-0.836516 0.482963 0.258819 -0.701458 0.701458 0.126150
-0.500000 0.866025 0.000000 -0.701458 0.701458 0.126150
-0.866025 0.500000 0.000000 -0.701458 0.701458 0.126150
-0.612372 0.353554 0.707107 -0.439831 0.439831 0.783005
-0.250000 0.433013 0.866025 -0.439831 0.439831 0.783005
-0.353553 0.612372 0.707107 -0.439831 0.439831 0.783005
-0.433012 0.250000 -0.866025 -0.439831 0.439831 -0.783005
-0.353553 0.612373 -0.707107 -0.439831 0.439831 -0.783005
-0.250000 0.433013 -0.866025 -0.439831 0.439831 -0.783005
-0.866025 0.500000 0.000000 -0.701458 0.701458 -0.126150
-0.482963 0.836516 -0.258819 -0.701458 0.701458 -0.126150
-0.836516 0.482963 -0.258819 -0.701458 0.701458 -0.126150
-0.612372 0.353554 0.707107 -0.568081 0.568081 0.595456
-0.433012 0.750000 0.500000 -0.568081 0.568081 0.595456
-0.749999 0.433013 0.500000 -0.568081 0.568081 0.595456
-0.224144 0.129410 -0.965926 -0.278683 0.278683 -0.919060
-0.250000 0.433013 -0.866025 -0.278683 0.278683 -0.919060
-0.129409 0.224144 -0.965926 -0.278683 0.278683 -0.919060
-0.224143 0.129410 0.965926 -0.095494 0.095494 0.990839
-0.000000 0.000000 1.000000 -0.095494 0.095494 0.990839
-0.129409 0.224144 0.965926 -0.095494 0.095494 0.990839
-0.836516 0.482963 -0.258819 -0.656510 0.656510 -0.371470
-0.433012 0.750000 -0.500000 -0.656510 0.656510 -0.371470
-0.750000 0.433013 -0.500000 -0.656510 0.656510 -0.371470
-0.836516 0.482963 0.258819 -0.656509 0.656510 0.371471
-0.433012 0.750000 0.500000 -0.656509 0.656510 0.371471
-0.482963 0.836516 0.258819 -0.656509 0.656510 0.371471
0.000000 0.000000 -1.000000 -0.095494 0.095494 -0.990839
-0.224144 0.129410 -0.965926 -0.095494 0.095494 -0.990839
-0.129409 0.224144 -0.965926 -0.095494 0.095494 -0.990839
-0.224143 0.129410 0.965926 -0.278683 0.278683 0.919060
-0.250000 0.433013 0.866025 -0.278683 0.278683 0.919060
-0.433012 0.250000 0.866025 -0.278683 0.278683 0.919060
-0.750000 0.433013 -0.500000 -0.568081 0.568081 -0.595456
-0.353553 0.612373 -0.707107 -0.568081 0.568081 -0.595456
-0.612372 0.353554 -0.707107 -0.568081 0.568081 -0.595456
-0.433012 0.750000 0.500000 -0.240299 0.896809 0.371471
0.000000 0.965926 0.258819 -0.240299 0.896809 0.371471
-0.482963 0.836516 0.258819 -0.240299 0.896809 0.371471
0.000000 0.000000 -1.000000 -0.034953 0.130447 -0.990839
-0.129409 0.224144 -0.965926 -0.034953 0.130447 -0.990839
0.000000 0.258819 -0.965926 -0.034953 0.130447 -0.990839
-0.129409 0.224144 0.965926 -0.102005 0.380687 0.919060
0.000000 0.500000 0.866025 -0.102005 0.380687 0.919060
-0.250000 0.433013 0.866025 -0.102005 0.380687 0.919060
-0.433012 0.750000 -0.500000 -0.207932 0.776013 -0.595455
0.000000 0.707107 -0.707107 -0.207932 0.776013 -0.595455
-0.353553 0.612373 -0.707107 -0.207932 0.776013 -0.595455
-0.482963 0.836516 0.258819 -0.256752 0.958209 0.126150
0.000000 1.000000 0.000000 -0.256752 0.958209 0.126150
-0.500000 0.866025 0.000000 -0.256752 0.958209 0.126150
-0.250000 0.433013 0.866025 -0.160989 0.600821 0.783005
0.000000 0.707107 0.707107 -0.160989 0.600821 0.783005
-0.353553 0.612372 0.707107 -0.160989 0.600821 0.783005
-0.353553 0.612373 -0.707107 -0.160990 0.600821 -0.783005
0.000000 0.500000 -0.866025 -0.160990 0.600821 -0.783005
-0.250000 0.433013 -0.866025 -0.160990 0.600821 -0.783005
-0.500000 0.866025 0.000000 -0.256752 0.958209 -0.126150
0.000000 0.965926 -0.258819 -0.256752 0.958209 -0.126150
-0.482963 0.836516 -0.258819 -0.256752 0.958209 -0.126150
-0.353553 0.612372 0.707107 -0.207932 0.776013 0.595456
0.000000 0.866025 0.500000 -0.207932 0.776013 0.595456
-0.433012 0.750000 0.500000 -0.207932 0.776013 0.595456
-0.250000 0.433013 -0.866025 -0.102005 0.380688 -0.919060
0.000000 0.258819 -0.965926 -0.102005 0.380688 -0.919060
-0.129409 0.224144 -0.965926 -0.102005 0.380688 -0.919060
-0.129409 0.224144 0.965926 -0.034953 0.130447 0.990839
-0.000000 0.000000 1.000000 -0.034953 0.130447 0.990839
0.000000 0.258819 0.965926 -0.034953 0.130447 0.990839
-0.482963 0.836516 -0.258819 -0.240299 0.896809 -0.371470
0.000000 0.866026 -0.500000 -0.240299 0.896809 -0.371470
-0.433012 0.750000 -0.500000 -0.240299 0.896809 -0.371470
0.000000 0.866025 0.500000 0.240299 0.896809 0.371470
0.129409 0.224144 0.965926 0.102005 0.380687 0.919061
0.433013 0.750000 -0.500000 0.207932 0.776013 -0.595456
0.482963 0.836516 0.258819 0.256751 0.958209 0.126151
0.000000 0.500000 0.866025 0.160989 0.600821 0.783005
0.353553 0.612373 -0.707107 0.160990 0.600821 -0.783005
0.000000 1.000000 0.000000 0.256751 0.958209 -0.126151
0.500000 0.866025 0.000000 0.256751 0.958209 -0.126151
0.482963 0.836516 -0.258819 0.256751 0.958209 -0.126151
0.353553 0.612372 0.707107 0.207932 0.776013 0.595456
0.250000 0.433013 -0.866025 0.102005 0.380688 -0.919060
0.482963 0.836516 -0.258819 0.240299 0.896809 -0.371470
0.612372 0.353554 -0.707107 0.439832 0.439832 -0.783005
0.866025 0.500000 0.000000 0.701458 0.701458 -0.126150
0.353553 0.612372 0.707107 0.568081 0.568081 0.595456
0.433013 0.250000 -0.866025 0.278683 0.278683 -0.919060
0.836516 0.482963 -0.258819 0.656510 0.656510 -0.371470
0.433013 0.750000 0.500000 0.656510 0.656510 0.371470
0.250000 0.433013 0.866025 0.278682 0.278682 0.919060
0.129409 0.224144 0.965926 0.278682 0.278682 0.919060
0.224144 0.129410 0.965926 0.278682 0.278682 0.919060
0.750000 0.433013 -0.500000 0.568081 0.568081 -0.595456
0.836516 0.482963 0.258819 0.701458 0.701458 0.126151
0.433012 0.250000 0.866025 0.439831 0.439831 0.783005
0.258819 0.000000 0.965926 0.380687 0.102005 0.919060
0.866025 0.000000 -0.500000 0.776013 0.207932 -0.595456
0.965925 0.000000 0.258819 0.958209 0.256751 0.126151
0.500000 0.000000 0.866025 0.600821 0.160989 0.783005
0.612372 0.353554 -0.707107 0.600821 0.160990 -0.783005
0.707107 0.000000 -0.707107 0.600821 0.160990 -0.783005
0.500000 0.000000 -0.866025 0.600821 0.160990 -0.783005
0.866025 0.500000 0.000000 0.958209 0.256751 -0.126150
1.000000 0.000000 0.000000 0.958209 0.256751 -0.126150
0.965926 0.000000 -0.258819 0.958209 0.256751 -0.126150
0.707106 0.000000 0.707107 0.776013 0.207932 0.595456
0.433013 0.250000 -0.866025 0.380688 0.102005 -0.919060
0.836516 0.482963 -0.258819 0.896809 0.240299 -0.371470
0.866025 0.000000 0.500000 0.896809 0.240299 0.371470
0.433012 -0.250000 -0.866025 0.380688 -0.102005 -0.919060
0.965926 0.000000 -0.258819 0.896809 -0.240299 -0.371470
0.866025 0.000000 0.500000 0.896809 -0.240299 0.371471
0.750000 -0.433012 0.500000 0.896809 -0.240299 0.371471
0.836516 -0.482962 0.258819 0.896809 -0.240299 0.371471
0.224144 -0.129409 0.965926 0.380687 -0.102005 0.919060
0.750000 -0.433012 -0.500000 0.776013 -0.207932 -0.595456
0.836516 -0.482962 0.258819 0.958209 -0.256751 0.126150
0.433012 -0.249999 0.866025 0.600821 -0.160989 0.783005
0.707107 0.000000 -0.707107 0.600821 -0.160989 -0.783005
0.612372 -0.353553 -0.707107 0.600821 -0.160989 -0.783005
0.433012 -0.250000 -0.866025 0.600821 -0.160989 -0.783005
0.866025 -0.499999 0.000000 0.958209 -0.256751 -0.126150
0.612372 -0.353553 0.707107 0.776013 -0.207932 0.595456
0.250000 -0.433012 0.866025 0.439831 -0.439831 0.783005
0.612372 -0.353553 -0.707107 0.439831 -0.439831 -0.783005
0.500000 -0.866025 0.000000 0.701458 -0.701458 -0.126150
0.353553 -0.612372 0.707107 0.568081 -0.568081 0.595456
0.250000 -0.433012 -0.866025 0.278683 -0.278683 -0.919060
0.836516 -0.482962 -0.258819 0.656510 -0.656510 -0.371470
0.433012 -0.749999 0.500000 0.656509 -0.656510 0.371471
0.224144 -0.129409 0.965926 0.278683 -0.278683 0.919061
0.129409 -0.224143 0.965926 0.278683 -0.278683 0.919061
0.250000 -0.433012 0.866025 0.278683 -0.278683 0.919061
0.433013 -0.749999 -0.500000 0.568081 -0.568081 -0.595456
0.836516 -0.482962 0.258819 0.701458 -0.701458 0.126150
0.129409 -0.224143 0.965926 0.102005 -0.380688 0.919060
0.000000 -0.258818 0.965926 0.102005 -0.380688 0.919060
-0.000000 -0.499999 0.866025 0.102005 -0.380688 0.919060
-0.000000 -0.866025 -0.500000 0.207932 -0.776013 -0.595456
0.482963 -0.836516 0.258819 0.256751 -0.958209 0.126150
-0.000000 -0.499999 0.866025 0.160989 -0.600821 0.783005
0.353553 -0.612372 -0.707107 0.160989 -0.600821 -0.783005
-0.000000 -0.999999 0.000000 0.256751 -0.958209 -0.126150
-0.000000 -0.707106 0.707107 0.207932 -0.776013 0.595456
0.250000 -0.433012 -0.866025 0.102005 -0.380688 -0.919060
-0.000000 -0.965925 -0.258819 0.240299 -0.896809 -0.371470
-0.000000 -0.866025 0.500000 0.240299 -0.896809 0.371471
-0.353553 -0.612372 0.707107 -0.207932 -0.776013 0.595456
-0.000000 -0.499999 -0.866025 -0.102005 -0.380688 -0.919060
-0.482963 -0.836516 -0.258819 -0.240299 -0.896809 -0.371470
-0.000000 -0.866025 0.500000 -0.240299 -0.896809 0.371471
-0.000000 -0.499999 0.866025 -0.102005 -0.380687 0.919060
0.000000 -0.258818 0.965926 -0.102005 -0.380687 0.919060
-0.129409 -0.224143 0.965926 -0.102005 -0.380687 0.919060
-0.433013 -0.749999 -0.500000 -0.207932 -0.776013 -0.595456
-0.000000 -0.999999 0.000000 -0.256751 -0.958209 0.126151
-0.000000 -0.965925 0.258819 -0.256751 -0.958209 0.126151
-0.482963 -0.836516 0.258819 -0.256751 -0.958209 0.126151
-0.250000 -0.433012 0.866025 -0.160990 -0.600821 0.783005
-0.000000 -0.707106 -0.707107 -0.160989 -0.600821 -0.783005
-0.353553 -0.612372 -0.707107 -0.160989 -0.600821 -0.783005
-0.250000 -0.433012 -0.866025 -0.160989 -0.600821 -0.783005
-0.000000 -0.999999 0.000000 -0.256752 -0.958209 -0.126150
-0.500000 -0.866025 0.000000 -0.256752 -0.958209 -0.126150
-0.482963 -0.836516 -0.258819 -0.256752 -0.958209 -0.126150
-0.433012 -0.249999 0.866025 -0.439831 -0.439831 0.783005
-0.612372 -0.353553 -0.707107 -0.439831 -0.439831 -0.783005
-0.866025 -0.499999 0.000000 -0.701458 -0.701458 -0.126150
-0.612372 -0.353553 0.707107 -0.568081 -0.568081 0.595456
-0.250000 -0.433012 -0.866025 -0.278683 -0.278683 -0.919060
-0.836516 -0.482962 -0.258819 -0.656510 -0.656510 -0.371470
-0.433012 -0.749999 0.500000 -0.656510 -0.656510 0.371471
-0.750000 -0.433012 0.500000 -0.656510 -0.656510 0.371471
-0.836516 -0.482962 0.258819 -0.656510 -0.656510 0.371471
-0.224143 -0.129409 0.965926 -0.278683 -0.278683 0.919060
-0.433013 -0.749999 -0.500000 -0.568081 -0.568081 -0.595455
-0.750000 -0.433012 -0.500000 -0.568081 -0.568081 -0.595455
-0.612372 -0.353553 -0.707107 -0.568081 -0.568081 -0.595455
-0.482963 -0.836516 0.258819 -0.701458 -0.701458 0.126150
-0.866025 0.000000 0.500000 -0.896809 -0.240299 0.371471
-0.258819 0.000000 0.965926 -0.380687 -0.102005 0.919060
-0.750000 -0.433012 -0.500000 -0.776013 -0.207932 -0.595456
-0.866025 0.000000 -0.500000 -0.776013 -0.207932 -0.595456
-0.707107 0.000000 -0.707107 -0.776013 -0.207932 -0.595456
-0.836516 -0.482962 0.258819 -0.958209 -0.256751 0.126150
-0.499999 0.000000 0.866025 -0.600821 -0.160989 0.783005
-0.612372 -0.353553 -0.707107 -0.600821 -0.160989 -0.783005
-0.999999 0.000001 0.000000 -0.958209 -0.256751 -0.126150
-0.707106 0.000001 0.707107 -0.776013 -0.207932 0.595456
-0.500000 0.000000 -0.866025 -0.380688 -0.102005 -0.919060
-0.965925 0.000000 -0.258819 -0.896809 -0.240299 -0.371470
-0.612372 0.353554 0.707107 -0.776013 0.207932 0.595456
-0.433012 0.250000 -0.866025 -0.380688 0.102005 -0.919060
-0.836516 0.482963 -0.258819 -0.896809 0.240299 -0.371470
-0.749999 0.433013 0.500000 -0.896809 0.240299 0.371471
-0.224143 0.129410 0.965926 -0.380687 0.102005 0.919060
-0.750000 0.433013 -0.500000 -0.776013 0.207932 -0.595456
-0.965925 0.000000 0.258819 -0.958209 0.256752 0.126150
-0.433012 0.250000 0.866025 -0.600821 0.160990 0.783005
-0.500000 0.000000 -0.866025 -0.600821 0.160989 -0.783005
-0.707107 0.000000 -0.707107 -0.600821 0.160989 -0.783005
-0.612372 0.353554 -0.707107 -0.600821 0.160989 -0.783005
-0.866025 0.500000 0.000000 -0.958209 0.256752 -0.126150
-0.482963 0.836516 0.258819 -0.701458 0.701458 0.126150
-0.433012 0.250000 0.866025 -0.439831 0.439831 0.783005
-0.612372 0.353554 -0.707107 -0.439831 0.439831 -0.783005
-0.500000 0.866025 0.000000 -0.701458 0.701458 -0.126150
-0.353553 0.612372 0.707107 -0.568081 0.568081 0.595456
-0.433012 0.250000 -0.866025 -0.278683 0.278683 -0.919060
-0.482963 0.836516 -0.258819 -0.656510 0.656510 -0.371470
-0.749999 0.433013 0.500000 -0.656509 0.656510 0.371471
-0.129409 0.224144 0.965926 -0.278683 0.278683 0.919060
-0.750000 0.433013 -0.500000 -0.568081 0.568081 -0.595455
-0.433012 0.750000 -0.500000 -0.568081 0.568081 -0.595455
-0.353553 0.612373 -0.707107 -0.568081 0.568081 -0.595455
-0.433012 0.750000 0.500000 -0.240300 0.896809 0.371470
0.000000 0.866025 0.500000 -0.240300 0.896809 0.371470
0.000000 0.965926 0.258819 -0.240300 0.896809 0.371470
-0.129409 0.224144 0.965926 -0.102005 0.380687 0.919061
0.000000 0.258819 0.965926 -0.102005 0.380687 0.919061
0.000000 0.500000 0.866025 -0.102005 0.380687 0.919061
-0.433012 0.750000 -0.500000 -0.207932 0.776013 -0.595456
0.000000 0.866026 -0.500000 -0.207932 0.776013 -0.595456
0.000000 0.707107 -0.707107 -0.207932 0.776013 -0.595456
-0.482963 0.836516 0.258819 -0.256752 0.958209 0.126151
0.000000 0.965926 0.258819 -0.256752 0.958209 0.126151
0.000000 1.000000 0.000000 -0.256752 0.958209 0.126151
-0.250000 0.433013 0.866025 -0.160990 0.600821 0.783005
0.000000 0.500000 0.866025 -0.160990 0.600821 0.783005
0.000000 0.707107 0.707107 -0.160990 0.600821 0.783005
0.000000 0.707107 -0.707107 -0.160990 0.600821 -0.783005
0.000000 1.000000 0.000000 -0.256752 0.958209 -0.126150
0.000000 0.707107 0.707107 -0.207932 0.776013 0.595456
0.000000 0.500000 -0.866025 -0.102005 0.380688 -0.919060
0.000000 0.965926 -0.258819 -0.240299 0.896809 -0.371470
3 0 1 2
3 3 4 5
3 6 7 8
3 9 10 11
3 12 13 14
3 15 16 17
3 18 19 20
3 21 22 23
3 24 25 26
3 27 28 29
3 30 31 32
3 33 34 35
3 36 37 38
3 39 40 41
3 42 43 44
3 45 46 47
3 48 49 50
3 51 52 53
3 54 55 56
3 57 58 59
3 60 61 62
3 63 64 65
3 66 67 68
3 69 70 71
3 72 73 74
3 75 76 77
3 78 79 80
3 81 82 83
3 84 85 86
3 87 88 89
3 90 91 92
3 93 94 95
3 96 97 98
3 99 100 101
3 102 103 104
3 105 106 107
3 108 109 110
3 111 112 113
3 114 115 116
3 117 118 119
3 120 121 122
3 123 124 125
3 126 127 128
3 129 130 131
3 132 133 134
3 135 136 137
3 138 139 140
3 141 142 143
3 144 145 146
3 147 148 149
3 150 151 152
3 153 154 155
3 156 157 158
3 159 160 161
3 162 163 164
3 165 166 167
3 168 169 170
3 171 172 173
3 174 175 176
3 177 178 179
3 180 181 182
3 183 184 185
3 186 187 188
3 189 190 191
3 192 193 194
3 195 196 197
3 198 199 200
3 201 202 203
3 204 205 206
3 207 208 209
3 210 211 212
3 213 214 215
3 216 217 218
3 219 220 221
3 222 223 224
3 225 226 227
3 228 229 230
3 231 232 233
3 234 235 236
3 237 238 239
3 240 241 242
3 243 244 245
3 246 247 248
3 249 250 251
3 252 253 254
3 255 256 257
3 258 259 260
3 261 262 263
3 264 265 266
3 267 268 269
3 270 271 272
3 273 274 275
3 276 277 278
3 279 280 281
3 282 283 284
3 285 286 287
3 288 289 290
3 291 292 293
3 294 295 296
3 297 298 299
3 300 301 302
3 303 304 305
3 306 307 308
3 309 310 311
3 312 313 314
3 315 316 317
3 318 319 320
3 321 322 323
3 324 325 326
3 327 328 329
3 330 331 332
3 333 334 335
3 336 337 338
3 339 340 341
3 342 343 344
3 345 346 347
3 348 349 350
3 351 352 353
3 354 355 356
3 357 358 359
3 360 361 362
3 363 364 365
3 366 367 368
3 369 370 371
3 372 373 374
3 375 376 377
3 378 379 380
3 381 382 383
3 384 385 386
3 387 388 389
3 390 391 392
3 393 394 395
3 396 397 398
3 399 400 401
3 402 403 404
3 405 406 407
3 408 409 410
3 411 412 413
3 414 415 416
3 417 418 419
3 420 421 422
3 423 424 425
3 426 427 428
3 429 430 431
3 0 432 1
3 6 433 7
3 9 434 10
3 12 435 13
3 15 436 16
3 18 437 19
3 438 439 440
3 24 441 25
3 27 442 28
3 33 443 34
3 36 444 37
3 39 445 40
3 42 446 43
3 45 447 46
3 51 448 52
3 54 449 55
3 450 451 452
3 63 453 64
3 66 454 67
3 69 455 70
3 72 456 73
3 75 457 76
3 78 458 79
3 81 459 82
3 460 461 462
3 463 464 465
3 90 466 91
3 93 467 94
3 99 468 100
3 102 469 103
3 108 470 109
3 114 471 115
3 472 473 474
3 123 475 124
3 126 476 127
3 129 477 130
3 132 478 133
3 479 480 481
3 138 482 139
3 141 483 142
3 144 484 145
3 147 485 148
3 150 486 151
3 153 487 154
3 156 488 157
3 162 489 163
3 165 490 166
3 491 492 493
3 174 494 175
3 177 495 178
3 496 497 498
3 186 499 187
3 189 500 190
3 192 501 193
3 195 502 196
3 198 503 199
3 201 504 202
3 204 505 205
3 210 506 211
3 213 507 214
3 216 508 217
3 219 509 220
3 225 510 226
3 228 511 229
3 512 513 514
3 237 515 238
3 516 517 518
3 243 519 244
3 520 521 522
3 523 524 525
3 252 526 253
3 255 527 256
3 258 528 259
3 261 529 262
3 264 530 265
3 270 531 271
3 532 533 534
3 279 535 280
3 536 537 538
3 285 539 286
3 288 540 289
3 294 541 295
3 542 543 544
3 300 545 301
3 303 546 304
3 306 547 307
3 309 548 310
3 312 549 313
3 315 550 316
3 321 551 322
3 324 552 325
3 327 553 328
3 333 554 334
3 336 555 337
3 342 556 343
3 345 557 346
3 348 558 349
3 351 559 352
3 560 561 562
3 357 563 358
3 360 564 361
3 363 565 364
3 366 566 367
3 369 567 370
3 372 568 373
3 375 569 376
3 381 570 382
3 384 571 385
3 390 572 391
3 573 574 575
3 576 577 578
3 579 580 581
3 582 583 584
3 585 586 587
3 588 589 590
3 414 591 415
3 417 592 418
3 420 593 421
3 423 594 424
3 429 595 430
